<!DOCTYPE svg PUBLIC "-//W3C//DTD SVG 1.1//EN" "http://www.w3.org/Graphics/SVG/1.1/DTD/svg11.dtd">
<!-- Creator: fig2dev Version 3.2 Patchlevel 5e -->
<!-- CreationDate: Thu Feb  9 16:02:41 2017 -->
<!-- Magnification: 1.050 -->
<svg width="7584" height="7584" xmlns="http://www.w3.org/2000/svg" xmlns:d="http://www.mathworks.com/blockgraphics">
 <g>
  <title>Layer 1</title>
  <!-- Arc -->
  <path fill-opacity="0" d:options="Port:L3" fill="#000000" id="svg_2" stroke="#000000" stroke-width="8" d="m2834,6603a306,306 0 0 1 567,0"/>
  <!-- Arc -->
  <path fill-opacity="0" d:options="Port:L3" fill="#000000" id="svg_3" stroke="#000000" stroke-width="8" d="m3968,6603a306,306 0 0 1 567,0"/>
  <!-- Arc -->
  <path fill-opacity="0" d:options="Port:L3" fill="#000000" id="svg_4" stroke="#000000" stroke-width="8" d="m3401,6603a306,306 0 0 0 567,0"/>
  <!-- Arc -->
  <path fill-opacity="0" d:options="Port:L3" fill="#000000" id="svg_5" stroke="#000000" stroke-width="8" d="m2834,7132a306,306 0 0 1 567,0"/>
  <!-- Arc -->
  <path fill-opacity="0" d:options="Port:L3" fill="#000000" id="svg_6" stroke="#000000" stroke-width="8" d="m3968,7132a306,306 0 0 1 567,0"/>
  <!-- Arc -->
  <path fill-opacity="0" d:options="Port:L3" fill="#000000" id="svg_7" stroke="#000000" stroke-width="8" d="m3401,7132a306,306 0 0 0 567,0"/>
  <!-- Arc -->
  <path fill-opacity="0" d:options="Port:L3" fill="#000000" id="svg_8" stroke="#000000" stroke-width="8" d="m2834,6002a306,306 0 0 1 567,0"/>
  <!-- Arc -->
  <path fill-opacity="0" d:options="Port:L3" fill="#000000" id="svg_9" stroke="#000000" stroke-width="8" d="m3968,6002a306,306 0 0 1 567,0"/>
  <!-- Arc -->
  <path fill-opacity="0" d:options="Port:L3" fill="#000000" id="svg_10" stroke="#000000" stroke-width="8" d="m3401,6002a306,306 0 0 0 567,0"/>
  <!-- Line -->
  <polyline fill-opacity="0" d:options="Port:L1" id="svg_11" stroke="#000000" stroke-width="8" points="0,2834 2834,2834 "/>
  <!-- Line -->
  <polyline fill-opacity="0" d:options="Port:L0" id="svg_12" stroke="#000000" stroke-width="8" points="1889,1181 1889,2598 "/>
  <!-- Line -->
  <polyline fill-opacity="0" d:options="Port:L0" id="svg_13" stroke="#000000" stroke-width="8" points="1889,3070 1889,4488 "/>
  <!-- Line -->
  <polyline fill-opacity="0" d:options="Port:L0" id="svg_14" stroke="#000000" stroke-width="8" points="1889,4960 1889,6377 "/>
  <!-- Line: box -->
  <rect fill-opacity="0" fill="#000000" id="svg_15" stroke="#ffffff" stroke-width="8" height="7559" width="7559" y="0" x="0"/>
  <!-- Line -->
  <polyline fill-opacity="0" d:options="Port:L2" id="svg_16" stroke="#000000" stroke-width="8" points="0,4724 2834,4724 "/>
  <!-- Line -->
  <polyline fill-opacity="0" d:options="Port:L3" id="svg_17" stroke="#000000" stroke-width="8" points="0,6614 2834,6614 "/>
  <!-- Line -->
  <polyline fill-opacity="0" d:options="Port:L0" id="svg_18" stroke="#000000" stroke-width="8" points="0,944 2834,944 "/>
  <!-- Line -->
  <polyline fill-opacity="0" d:options="Port:L0" id="svg_19" stroke="#000000" stroke-width="8" points="1889,6850 1889,7086 7322,7086 7322,472 1889,472 1889,708 "/>
 </g>
</svg>